<svg width="64" height="64" viewBox="0 0 64 64" fill="none" xmlns="http://www.w3.org/2000/svg">
<path d="M31.3959 9.83468C28.0281 8.7889 24.6525 7.78194 21.2827 6.74949C21.052 6.67907 20.8389 6.68085 20.6826 6.85287C20.5093 7.04406 20.5438 7.29535 20.6571 7.51831C21.0728 8.34493 21.5103 9.16381 21.9299 9.99122C22.0165 10.1626 22.0154 10.2748 21.7987 10.3455C12.2191 13.4825 6.66025 24.1676 12.0284 33.6237C12.1681 33.869 12.3235 34.132 12.6487 34.1498C12.8841 34.1622 13.0819 34.0415 13.1939 33.8556C13.2808 33.7131 13.3197 33.5358 13.2807 33.3426C11.7039 25.3164 18.5549 19.3539 25.2719 17.1517C25.4473 17.092 25.5846 17.1434 25.6676 17.3359C26.133 18.4428 26.835 19.6424 27.3862 20.7263C27.5201 20.9915 27.6843 21.1092 27.9261 21.0905C28.1989 21.0708 28.3193 20.8681 28.3978 20.6398C29.5572 17.2884 30.6824 13.8579 31.7424 10.4724C31.8386 10.166 31.7017 9.93098 31.3959 9.83468ZM15.9746 37.4158C19.3423 38.4616 22.7164 39.469 26.0878 40.5009C26.3168 40.5719 26.5333 40.5691 26.6884 40.3993C26.8611 40.2064 26.8249 39.9555 26.7133 39.7322C26.2977 38.9055 25.8602 38.0866 25.441 37.2609C25.3544 37.0896 25.355 36.9757 25.5735 36.9045C35.1514 33.7679 40.7103 23.0829 35.342 13.6268C35.2024 13.3815 35.047 13.1185 34.7222 13.1024C34.4847 13.0887 34.2887 13.209 34.1766 13.3948C34.0897 13.5373 34.0508 13.7146 34.0899 13.9079C35.6648 21.9345 28.8155 27.8965 22.0991 30.1005C21.9214 30.159 21.7863 30.1087 21.7045 29.9141C21.2375 28.8077 20.5355 27.608 19.9843 26.524C19.8486 26.2594 19.6862 26.1413 19.4445 26.16C19.1717 26.1796 19.0529 26.3819 18.9748 26.6119C17.8133 29.9621 16.6881 33.3925 15.6281 36.7781C15.5324 37.0861 15.6692 37.3212 15.9746 37.4158Z" fill="#2A609F"/>
<path d="M50.2695 41.6395C49.9244 41.3152 49.534 41.0689 49.1251 40.8974C47.9773 40.4093 46.6699 40.5125 45.6255 41.1894L41.7665 37.5778L40.7103 36.5882C41.1521 35.9438 41.5543 35.2823 41.9182 34.6017C46.529 25.9861 44.9069 14.8328 37.4051 7.81046C36.3441 6.81671 35.2132 5.95351 34.0314 5.21594C32.046 3.97543 29.919 3.09929 27.7358 2.57575C25.1299 1.95222 22.4467 1.83556 19.8311 2.22377C19.0326 2.34326 18.2428 2.50828 17.4632 2.71822C13.7057 3.73601 10.1947 5.83462 7.40069 8.99685C2.39315 14.6653 0.904372 22.3724 2.78244 29.3346C3.83478 33.2406 5.94886 36.9108 9.09409 39.8543C15.3154 45.6829 23.906 47.0921 31.1613 44.2416C33.1853 43.4481 35.1037 42.3232 36.8414 40.8685L41.8034 45.5141C41.0497 47.0528 41.3591 48.9976 42.6801 50.232L54.1277 60.9493C55.1418 61.8987 56.5026 62.1996 57.7203 61.8727C58.406 61.6897 59.0442 61.3101 59.5544 60.7355L59.7652 60.492L62.0223 57.9355C63.4378 56.3376 63.2993 53.8371 61.7171 52.3568L50.2695 41.6395ZM11.1345 37.5465C3.87908 30.7555 3.04139 19.4516 9.07456 11.8653C9.27027 11.6205 9.47447 11.3733 9.68493 11.1355C12.6525 7.77645 16.5645 5.82026 20.6527 5.29219C20.7754 5.27598 20.8977 5.26533 21.0209 5.2508C25.6255 4.75361 30.4212 6.06222 34.3222 9.22055C34.6586 9.49216 34.99 9.77247 35.3117 10.0719C35.3288 10.0875 35.3476 10.1027 35.3647 10.1183C36.2977 10.9921 37.1219 11.9408 37.8426 12.9428C39.5284 15.2944 40.6211 17.9603 41.1206 20.7148C42.1208 26.2345 40.7223 32.1065 36.8152 36.5327C34.9607 38.6277 32.7401 40.1764 30.3379 41.1735C30.161 41.2483 29.9822 41.3162 29.8017 41.3846C25.6989 42.933 21.1194 42.9006 16.9596 41.2517C14.8732 40.4233 12.8926 39.1944 11.1345 37.5465Z" fill="#2A609F"/>
</svg>
